<?xml version="1.0" encoding="UTF-8" standalone="no"?>
<!-- Created with Inkscape (http://www.inkscape.org/) -->

<svg
   xmlns:dc="http://purl.org/dc/elements/1.1/"
   xmlns:cc="http://creativecommons.org/ns#"
   xmlns:rdf="http://www.w3.org/1999/02/22-rdf-syntax-ns#"
   xmlns:svg="http://www.w3.org/2000/svg"
   xmlns="http://www.w3.org/2000/svg"
   xmlns:sodipodi="http://sodipodi.sourceforge.net/DTD/sodipodi-0.dtd"
   xmlns:inkscape="http://www.inkscape.org/namespaces/inkscape"
   id="svg3374"
   version="1.1"
   inkscape:version="0.91 r13725"
   xml:space="preserve"
   width="744.09497"
   height="1052.3625"
   viewBox="0 0 744.09497 1052.3625"
   sodipodi:docname="sowNoteRawTwo.svg"><metadata
     id="metadata3380"><rdf:RDF><cc:Work
         rdf:about=""><dc:format>image/svg+xml</dc:format><dc:type
           rdf:resource="http://purl.org/dc/dcmitype/StillImage" /><dc:title></dc:title></cc:Work></rdf:RDF></metadata><defs
     id="defs3378"><clipPath
       clipPathUnits="userSpaceOnUse"
       id="clipPath3390"><path
         d="m 0,0 595.276,0 0,841.89 L 0,841.89 0,0 Z"
         id="path3392"
         inkscape:connector-curvature="0" /></clipPath></defs><sodipodi:namedview
     pagecolor="#ffffff"
     bordercolor="#666666"
     borderopacity="1"
     objecttolerance="10"
     gridtolerance="10"
     guidetolerance="10"
     inkscape:pageopacity="0"
     inkscape:pageshadow="2"
     inkscape:window-width="640"
     inkscape:window-height="480"
     id="namedview3376"
     showgrid="false"
     inkscape:zoom="0.57299645"
     inkscape:cx="372.04749"
     inkscape:cy="526.18127"
     inkscape:window-x="0"
     inkscape:window-y="0"
     inkscape:window-maximized="0"
     inkscape:current-layer="g3382" /><g
     id="g3382"
     inkscape:groupmode="layer"
     inkscape:label="sowNoteRawTwo"
     transform="matrix(1.25,0,0,-1.25,0,1052.3625)"><g
       id="g3384" /><g
       id="g3386"><g
         id="g3388"
         clip-path="url(#clipPath3390)"><text
           transform="matrix(1,0,0,-1,37.808,28.709)"
           style="font-variant:normal;font-weight:bold;font-size:9px;font-family:'Century Schoolbook L';-inkscape-font-specification:CenturySchL-Bold;writing-mode:lr-tb;fill:#231f20;fill-opacity:1;fill-rule:nonzero;stroke:none"
           id="text3394"><tspan
             x="0 5.1659999"
             y="0"
             sodipodi:role="line"
             id="tspan3396">12</tspan></text>
<text
           transform="matrix(1,0,0,-1,50.3639,28.709)"
           style="font-variant:normal;font-size:8px;font-family:'Century Schoolbook L';-inkscape-font-specification:CenturySchL-Roma;writing-mode:lr-tb;fill:#231f20;fill-opacity:1;fill-rule:nonzero;stroke:none"
           id="text3398"><tspan
             x="0"
             y="0"
             id="tspan3400">|</tspan></text>
<text
           transform="matrix(1,0,0,-1,57.5868,28.709)"
           style="font-variant:normal;font-size:8px;font-family:'Century Schoolbook L';-inkscape-font-specification:CenturySchL-Roma;writing-mode:lr-tb;fill:#231f20;fill-opacity:1;fill-rule:nonzero;stroke:none"
           id="text3402"><tspan
             x="0 5.04 7.5599999 10.672 12.896 19.120001 22.968 25.632 30.08 33.632 37.335999 39.560001 47.408001 51.703999"
             y="0"
             sodipodi:role="line"
             id="tspan3404">Sit Ozfårs Wys</tspan></text>
<text
           transform="matrix(1,0,0,-1,56.6929,776.4969)"
           style="font-variant:normal;font-weight:normal;font-size:12px;font-family:'Adobe Garamond Pro';-inkscape-font-specification:'Adobe Garamond Pro'-Regular;writing-mode:lr-tb;fill:#231f20;fill-opacity:1;fill-rule:nonzero;stroke:none"
           id="text3406"><tspan
             x="0 4.8600001 10.752 16.955999 23.316 27.059999 31.3188 36.6348 39.694801 45.5868 51.9468 55.006802 59.914799 62.9748 69.298798 75.190804 80.098801 83.842796 86.986801 93.346802 98.758797 101.8188 104.9628 109.8228 114.6348 120.6948 125.5068 129.5508 134.9628 138.0228 146.00281 152.2428 158.1348 162.0708 166.8228"
             y="0"
             sodipodi:role="line"
             id="tspan3408">country on a foating iceberg whose </tspan></text>
<text
           transform="matrix(1,0,0,-1,56.6929,762.0969)"
           style="font-variant:normal;font-weight:normal;font-size:12px;font-family:'Adobe Garamond Pro';-inkscape-font-specification:'Adobe Garamond Pro'-Regular;writing-mode:lr-tb;fill:#231f20;fill-opacity:1;fill-rule:nonzero;stroke:none"
           id="text3410"><tspan
             x="0 3.0840001 9.3839998 15.564 20.412001 26.412001 29.496 33.18 38.028 44.327999 48.012001 51.888 54.888 62.734798 67.486801 71.3508 76.102798 79.102798 85.102798 89.0868 92.170799 96.922798 103.1868 108.4428 111.4428 114.5268 120.8268 124.5108 128.4216 134.2536 140.3616 146.5056 151.3056 156.0576 162.1656 165.1656 168.84959 174.68159"
             y="0"
             sodipodi:role="line"
             id="tspan3412">inhabitants were briefy introduced to </tspan></text>
<text
           transform="matrix(1,0,0,-1,56.6929,747.6969)"
           style="font-variant:normal;font-weight:normal;font-size:12px;font-family:'Adobe Garamond Pro';-inkscape-font-specification:'Adobe Garamond Pro'-Regular;writing-mode:lr-tb;fill:#231f20;fill-opacity:1;fill-rule:nonzero;stroke:none"
           id="text3414"><tspan
             x="0"
             y="0"
             id="tspan3416">Th</tspan></text>
<text
           transform="matrix(1,0,0,-1,69.4729,747.6969)"
           style="font-variant:normal;font-weight:normal;font-size:12px;font-family:'Adobe Garamond Pro';-inkscape-font-specification:'Adobe Garamond Pro'-Regular;writing-mode:lr-tb;fill:#231f20;fill-opacity:1;fill-rule:nonzero;stroke:none"
           id="text3418"><tspan
             x="0 4.7519999 7.572 18.972 22.056 26.58 31.427999 35.242802 41.3508 44.3508 50.1828 53.6628 56.6628 66.130798 70.6548 73.6548 78.5028 84.802803 90.910797 93.910797 96.910797 101.6628 107.9628 112.7628 118.9428 123.7908 130.09081 133.7748 138.52679 144.6348 147.6348 150.6348 156.7428 161.4948 166.2948 169.3788 175.4868 180.2388 186.3468"
             y="0"
             sodipodi:role="line"
             id="tspan3420">e Wizard of Oz and, enchanted, decided </tspan></text>
<text
           transform="matrix(1,0,0,-1,56.6929,733.2969)"
           style="font-variant:normal;font-weight:normal;font-size:12px;font-family:'Adobe Garamond Pro';-inkscape-font-specification:'Adobe Garamond Pro'-Regular;writing-mode:lr-tb;fill:#231f20;fill-opacity:1;fill-rule:nonzero;stroke:none"
           id="text3422"><tspan
             x="0 3.684 9.5159998 12.516 17.316 23.148001 29.448 33.324001 37.007999 41.0868 47.230801 52.0308 55.714802 58.714802 63.562801 66.562798 74.482803 80.314796 84.226799 90.010803 93.010803 97.858803 101.7696 107.6016 113.7456 120.0456 126.1536 129.15359 132.8376 139.01759 143.76961 146.76961 153.0336 155.9976 165.4416 168.4416 174.4416 179.2896 183.1656 187.9176 194.0256"
             y="0"
             sodipodi:role="line"
             id="tspan3424">to construct a work around the flm based </tspan></text>
<text
           transform="matrix(1,0,0,-1,56.6929,718.8969)"
           style="font-variant:normal;font-weight:normal;font-size:12px;font-family:'Adobe Garamond Pro';-inkscape-font-specification:'Adobe Garamond Pro'-Regular;writing-mode:lr-tb;fill:#231f20;fill-opacity:1;fill-rule:nonzero;stroke:none"
           id="text3426"><tspan
             x="0 5.8319998 12.132 15.132 18.816 24.996 29.747999 32.832001 36.816002 39.816002 44.9268 49.774799 55.126801 61.270802 66.022797 69.022797 72.106796 81.550797 87.634804 91.498802 96.250801 100.1268 104.0028 107.0868 112.9188 119.2188 123.0948 126.0948 130.94279 137.2428 143.3508 146.3508 152.4588 156.44279 161.2908 169.2108 172.2948 178.5948 183.94679 186.94679 190.4268 194.3364 200.1684 209.6124"
             y="0"
             sodipodi:role="line"
             id="tspan3428">on their vague impressions and drawing from </tspan></text>
<text
           transform="matrix(1,0,0,-1,56.6929,704.4969)"
           style="font-variant:normal;font-weight:normal;font-size:12px;font-family:'Adobe Garamond Pro';-inkscape-font-specification:'Adobe Garamond Pro'-Regular;writing-mode:lr-tb;fill:#231f20;fill-opacity:1;fill-rule:nonzero;stroke:none"
           id="text3430"><tspan
             x="0 3.684 9.8640003 14.616 17.700001 21.684 24.684 30.827999 37.127998 40.212002 46.175999 52.32 57.071999 60.071999 69.515999 75.660004 79.536003 82.620003 87.419998 92.267998 95.232002 98.232002 101.916 105.9 110.748 116.856 119.94 123.624 126.708 132.53999 138.84 141.84"
             y="0"
             sodipodi:role="line"
             id="tspan3432">their unique musical tradition. </tspan></text>
<text
           transform="matrix(1,0,0,-1,201.5329,704.4969)"
           style="font-variant:normal;font-weight:normal;font-size:12px;font-family:'Adobe Garamond Pro';-inkscape-font-specification:'Adobe Garamond Pro'-Regular;writing-mode:lr-tb;fill:#231f20;fill-opacity:1;fill-rule:nonzero;stroke:none"
           id="text3434"><tspan
             x="0"
             y="0"
             id="tspan3436">Th</tspan></text>
<text
           transform="matrix(1,0,0,-1,214.3129,704.4969)"
           style="font-variant:normal;font-weight:normal;font-size:12px;font-family:'Adobe Garamond Pro';-inkscape-font-specification:'Adobe Garamond Pro'-Regular;writing-mode:lr-tb;fill:#231f20;fill-opacity:1;fill-rule:nonzero;stroke:none"
           id="text3438"><tspan
             x="0 4.7519999 7.7519999 13.836 17.6964 22.4484 26.132401 30.884399 36.068401 39.752399"
             y="0"
             sodipodi:role="line"
             id="tspan3440">e pretext </tspan></text>
<text
           transform="matrix(1,0,0,-1,56.6929,690.0969)"
           style="font-variant:normal;font-weight:normal;font-size:12px;font-family:'Adobe Garamond Pro';-inkscape-font-specification:'Adobe Garamond Pro'-Regular;writing-mode:lr-tb;fill:#231f20;fill-opacity:1;fill-rule:nonzero;stroke:none"
           id="text3442"><tspan
             x="0 5.3520002 9.2159996 14.04 21.959999 24.959999 28.044001 34.344002 38.028 43.860001 46.860001 51.708 58.007999 61.007999 65.760002 72.059998 75.744003 78.828003 82.690804 87.442802 90.442802 94.318802 98.0028 102.8508 108.2028 112.9548 119.0628 122.0628 128.1468 132.0576 137.8896 143.9976 150.1416 154.9416 158.6256 161.70959 167.5416 173.8416 176.8416 182.6736 186.15359"
             y="0"
             sodipodi:role="line"
             id="tspan3444">grew into an entire staged production of </tspan></text>
<text
           transform="matrix(1,0,0,-1,245.8465,690.0969)"
           style="font-variant:normal;font-weight:normal;font-size:12px;font-family:'Adobe Garamond Pro';-inkscape-font-specification:'Adobe Garamond Pro'-Regular;writing-mode:lr-tb;fill:#231f20;fill-opacity:1;fill-rule:nonzero;stroke:none"
           id="text3446"><tspan
             x="0"
             y="0"
             id="tspan3448">Th</tspan></text>
<text
           transform="matrix(1,0,0,-1,258.6265,690.0969)"
           style="font-variant:normal;font-weight:normal;font-size:12px;font-family:'Adobe Garamond Pro';-inkscape-font-specification:'Adobe Garamond Pro'-Regular;writing-mode:lr-tb;fill:#231f20;fill-opacity:1;fill-rule:nonzero;stroke:none"
           id="text3450"><tspan
             x="0 4.7519999"
             y="0"
             sodipodi:role="line"
             id="tspan3452">e </tspan></text>
<text
           transform="matrix(1,0,0,-1,56.6929,675.6969)"
           style="font-variant:normal;font-weight:normal;font-size:12px;font-family:'Adobe Garamond Pro';-inkscape-font-specification:'Adobe Garamond Pro'-Regular;writing-mode:lr-tb;fill:#231f20;fill-opacity:1;fill-rule:nonzero;stroke:none"
           id="text3454"><tspan
             x="0 11.4 14.484 19.007999 23.856001 27.672001 33.779999 36.779999 42.612 46.091999 49.091999 58.5588 63.082802 66.082802 69.958801 74.7108 79.462799 85.762802 88.762802 92.4468 98.626801 102.5388 108.3708 114.5148 119.8668 126.0468 129.0468 132.7308 138.9108 143.6628 146.6628 151.41479 156.5988 161.3508 165.22681 168.22681 173.0748 179.3748 185.4828"
             y="0"
             sodipodi:role="line"
             id="tspan3456">Wizard of Oz seen through the eyes and </tspan></text>
<text
           transform="matrix(1,0,0,-1,56.6929,661.2969)"
           style="font-variant:normal;font-weight:normal;font-size:12px;font-family:'Adobe Garamond Pro';-inkscape-font-specification:'Adobe Garamond Pro'-Regular;writing-mode:lr-tb;fill:#231f20;fill-opacity:1;fill-rule:nonzero;stroke:none"
           id="text3458"><tspan
             x="0 6.1799998 10.932 15.78 19.596001 25.702801 28.702801 32.386799 38.566799 42.478802 48.310799 54.4548 59.806801 65.986801 68.985603 72.549599 78.609596 83.2416 86.121597 90.753601 95.481598 99.345596 103.1016 105.9816 111.6936 115.0536 117.9336 121.4976 127.5576 132.18961 135.0696 140.9736 144.8376 147.80161 152.2056 158.3856 161.26559 167.2296 171.8616 177.57359 183.5376 186.38161 191.0136 194.01241"
             y="0"
             sodipodi:role="line"
             id="tspan3460">heard through the ears of the Frizn people. </tspan></text>
<text
           transform="matrix(1,0,0,-1,56.6929,646.8969)"
           style="font-variant:normal;font-weight:normal;font-size:12px;font-family:'Adobe Garamond Pro';-inkscape-font-specification:'Adobe Garamond Pro'-Regular;writing-mode:lr-tb;fill:#231f20;fill-opacity:1;fill-rule:nonzero;stroke:none"
           id="text3462"><tspan
             x="0"
             y="0"
             id="tspan3464">Th</tspan></text>
<text
           transform="matrix(1,0,0,-1,69.3529,646.8969)"
           style="font-variant:normal;font-weight:normal;font-size:12px;font-family:'Adobe Garamond Pro';-inkscape-font-specification:'Adobe Garamond Pro'-Regular;writing-mode:lr-tb;fill:#231f20;fill-opacity:1;fill-rule:nonzero;stroke:none"
           id="text3466"><tspan
             x="0 4.632 7.5120001 12.192 17.903999 27.228001 33.1908 37.8228 44.0028 49.990799 52.9548 58.978802 68.302803 71.1828 77.014801 80.494797 83.494797 87.370796 92.170799 98.0028 101.8668 106.6188 110.4948 113.4948 117.1788 123.3588 128.2068 131.89079 134.89079 140.0748 145.9068 152.0508 155.0508 159.8988 163.7628 168.5148"
             y="0"
             sodipodi:role="line"
             id="tspan3468">e compendium of scores that you are </tspan></text>
<text
           transform="matrix(1,0,0,-1,56.6929,632.4969)"
           style="font-variant:normal;font-weight:normal;font-size:12px;font-family:'Adobe Garamond Pro';-inkscape-font-specification:'Adobe Garamond Pro'-Regular;writing-mode:lr-tb;fill:#231f20;fill-opacity:1;fill-rule:nonzero;stroke:none"
           id="text3470"><tspan
             x="0 4.8000002 10.944 14.928 18.792 23.544001 29.844 33.528 36.492001 41.748001 44.748001 50.928001 56.759998 59.723999 65.832001 68.916 75.216003 80.568001 83.568001 88.367996 94.199997 100.5 104.184 109.032 112.116 118.416 122.292 125.292 128.976 135.15601 139.908 142.908 152.35201 158.496 162.37199 165.45599 170.256 173.256 176.73599 180.6456 186.4776 195.9216"
             y="0"
             sodipodi:role="line"
             id="tspan3472">currently holding contains the music from </tspan></text>
<text
           transform="matrix(1,0,0,-1,56.6929,618.0969)"
           style="font-variant:normal;font-weight:normal;font-size:12px;font-family:'Adobe Garamond Pro';-inkscape-font-specification:'Adobe Garamond Pro'-Regular;writing-mode:lr-tb;fill:#231f20;fill-opacity:1;fill-rule:nonzero;stroke:none"
           id="text3474"><tspan
             x="0 3.684 9.8640003 12.948 16.823999 19.823999 25.908001 29.8188 35.650799 41.758801 47.902802 52.702801 56.386799 59.470798 65.302803 71.602798"
             y="0"
             sodipodi:role="line"
             id="tspan3476">this production.</tspan></text>
<text
           transform="matrix(1,0,0,-1,62.3569,589.5249)"
           style="font-variant:normal;font-weight:normal;font-size:12px;font-family:'Adobe Garamond Pro';-inkscape-font-specification:'Adobe Garamond Pro'-Regular;writing-mode:lr-tb;fill:#231f20;fill-opacity:1;fill-rule:nonzero;stroke:none"
           id="text3478"><tspan
             x="0"
             y="0"
             id="tspan3480">Th</tspan></text>
<text
           transform="matrix(1,0,0,-1,75.1369,589.5249)"
           style="font-variant:normal;font-weight:normal;font-size:12px;font-family:'Adobe Garamond Pro';-inkscape-font-specification:'Adobe Garamond Pro'-Regular;writing-mode:lr-tb;fill:#231f20;fill-opacity:1;fill-rule:nonzero;stroke:none"
           id="text3482"><tspan
             x="0 4.7519999 7.7519999 13.776 17.76 20.844 25.368 31.667999 34.667999 44.112 50.256001 54.132 57.216 62.015999 66.863998 69.828003 72.828003 76.512001 80.496002 85.344002 91.452003 94.536003 98.220001 101.304 107.136 113.436 116.436 119.52 123.396 126.396 132.696 138.528 142.21201 145.21201 148.896 154.728 160.56"
             y="0"
             sodipodi:role="line"
             id="tspan3484">e Frizn musical tradition is not too </tspan></text>
<text
           transform="matrix(1,0,0,-1,56.6929,575.1249)"
           style="font-variant:normal;font-weight:normal;font-size:12px;font-family:'Adobe Garamond Pro';-inkscape-font-specification:'Adobe Garamond Pro'-Regular;writing-mode:lr-tb;fill:#231f20;fill-opacity:1;fill-rule:nonzero;stroke:none"
           id="text3486"><tspan
             x="0 6.1079998"
             y="0"
             sodipodi:role="line"
             id="tspan3488">di</tspan></text>
<text
           transform="matrix(1,0,0,-1,65.8849,575.1249)"
           style="font-variant:normal;font-weight:normal;font-size:12px;font-family:'Adobe Garamond Pro';-inkscape-font-specification:'Adobe Garamond Pro'-Regular;writing-mode:lr-tb;fill:#231f20;fill-opacity:1;fill-rule:nonzero;stroke:none"
           id="text3490"><tspan
             x="0"
             y="0"
             id="tspan3492">ﬀ</tspan></text>
<text
           transform="matrix(1,0,0,-1,72.5809,575.1249)"
           style="font-variant:normal;font-weight:normal;font-size:12px;font-family:'Adobe Garamond Pro';-inkscape-font-specification:'Adobe Garamond Pro'-Regular;writing-mode:lr-tb;fill:#231f20;fill-opacity:1;fill-rule:nonzero;stroke:none"
           id="text3494"><tspan
             x="0 4.7519999 8.6160002 13.368 19.667999 23.351999 26.351999 30.035999 36.216 41.063999 47.363998 50.363998 56.195999 62.34 66.323997 70.199997 73.199997 79.199997 85.344002 89.028 92.028 96.828003 102.66 108.96 112.644 117.492 120.576 126.876 130.752 133.752 137.62801 143.46001 152.90401 157.65601 160.65601 166.95599 172.78799 176.472 181.32001 187.32001 190.284 195.036"
             y="0"
             sodipodi:role="line"
             id="tspan3496">erent than ours but contains some notable </tspan></text>
<text
           transform="matrix(1,0,0,-1,56.6929,560.7249)"
           style="font-variant:normal;font-weight:normal;font-size:12px;font-family:'Adobe Garamond Pro';-inkscape-font-specification:'Adobe Garamond Pro'-Regular;writing-mode:lr-tb;fill:#231f20;fill-opacity:1;fill-rule:nonzero;stroke:none"
           id="text3498"><tspan
             x="0 6.1079998 9.1920004 14.304 19.056 23.040001 28.392 33.144001 39.444 44.243999 48.995998 52.872002 55.872002 58.872002 64.9188 68.0028 71.986801 75.862801 79.546799 82.546799 87.394798 93.694801 99.802803 102.8028 106.2828 112.1148 115.9776 120.7296 130.1736 136.0056 139.88161 143.5656 146.5656 149.5656 157.4856 163.6656 168.4176 174.71761 177.71761 181.4016 187.5816 192.3336 197.5896"
             y="0"
             sodipodi:role="line"
             id="tspan3500">divergences. First and foremost, when they </tspan></text>
<text
           transform="matrix(1,0,0,-1,56.6929,546.3249)"
           style="font-variant:normal;font-weight:normal;font-size:12px;font-family:'Adobe Garamond Pro';-inkscape-font-specification:'Adobe Garamond Pro'-Regular;writing-mode:lr-tb;fill:#231f20;fill-opacity:1;fill-rule:nonzero;stroke:none"
           id="text3502"><tspan
             x="0 9.4440002 14.292 20.076 24.827999 27.827999 37.271999 43.416 47.292 50.375999 55.175999 58.175999 61.175999 65.928001 71.038803 75.790802 79.990799 85.174797 91.006798 97.306801 102.0588 105.0588 108.9348 112.0188 118.3188 123.6708 127.5468 130.5468 135.39481 138.3588 141.3228 144.3228 148.00681 154.1868 158.9388 161.9388 165.6228 168.7068 178.1508 182.9028 185.9028"
             y="0"
             sodipodi:role="line"
             id="tspan3504">make music, everyone sings all the time. </tspan></text>
<text
           transform="matrix(1,0,0,-1,56.6929,531.9249)"
           style="font-variant:normal;font-weight:normal;font-size:12px;font-family:'Adobe Garamond Pro';-inkscape-font-specification:'Adobe Garamond Pro'-Regular;writing-mode:lr-tb;fill:#231f20;fill-opacity:1;fill-rule:nonzero;stroke:none"
           id="text3506"><tspan
             x="0"
             y="0"
             id="tspan3508">Th</tspan></text>
<text
           transform="matrix(1,0,0,-1,69.4729,531.9249)"
           style="font-variant:normal;font-weight:normal;font-size:12px;font-family:'Adobe Garamond Pro';-inkscape-font-specification:'Adobe Garamond Pro'-Regular;writing-mode:lr-tb;fill:#231f20;fill-opacity:1;fill-rule:nonzero;stroke:none"
           id="text3510"><tspan
             x="0 3.0840001 6.96 9.96 16.224001 19.308001 24.059999 27.936001 30.936001 34.02 40.32 43.32 47.004002 53.183998 57.936001 60.936001 64.416 69.264 74.064003 78.816002 81.816002 87.648003 91.127998 94.127998 97.811996 103.992 108.744 111.744 115.9908 120.7908 126.9708 132.8028 136.88161 143.0256 146.9016 150.82561 154.7016 160.5336 163.4976 169.32961 173.2536 179.3616 185.5056 190.73759 195.5856"
             y="0"
             sodipodi:role="line"
             id="tspan3512">is flies in the face of the “chorus/solo/duo” </tspan></text>
<text
           transform="matrix(1,0,0,-1,56.6929,517.5249)"
           style="font-variant:normal;font-weight:normal;font-size:12px;font-family:'Adobe Garamond Pro';-inkscape-font-specification:'Adobe Garamond Pro'-Regular;writing-mode:lr-tb;fill:#231f20;fill-opacity:1;fill-rule:nonzero;stroke:none"
           id="text3514"><tspan
             x="0 2.964 8.7959995 14.148 17.232 22.032 25.032 31.115999 34.98 39.731998 43.608002 48.360001 54.66 58.344002 61.344002 64.428001 70.727997 73.727997 78.575996 81.575996 86.928001 92.760002 98.592003 104.7 107.7 113.808 118.56 123.408 126.372 129.37199 135.20399 138.68401 141.68401 151.12801 157.272 161.14799 164.23199 169.032 173.88 176.84399 179.84399 183.528 189.70799 194.46001 199.308 202.992 207.744 211.728"
             y="0"
             sodipodi:role="line"
             id="tspan3516">logic present in a good deal of musical theater </tspan></text>
<text
           transform="matrix(1,0,0,-1,56.6929,503.1249)"
           style="font-variant:normal;font-weight:normal;font-size:12px;font-family:'Adobe Garamond Pro';-inkscape-font-specification:'Adobe Garamond Pro'-Regular;writing-mode:lr-tb;fill:#231f20;fill-opacity:1;fill-rule:nonzero;stroke:none"
           id="text3518"><tspan
             x="0 4.848 11.148 17.256001 20.256001 23.219999 27.972 32.82 38.928001 42.804001 45.804001 49.487999 55.32 58.32 64.463997 70.764 73.848 79.811996 85.956001 90.708 93.708 98.508003 104.688 109.536 112.5 115.464 120.216 126.516 131.868 136.62 140.496 143.496 146.58 152.88 155.88 159.564 165.744 170.496 173.496 179.28 184.032 188.784 194.868 197.952 204.252 209.604"
             y="0"
             sodipodi:role="line"
             id="tspan3520">and leads to unique challenges in the keeping </tspan></text>
<text
           transform="matrix(1,0,0,-1,56.6929,488.7249)"
           style="font-variant:normal;font-weight:normal;font-size:12px;font-family:'Adobe Garamond Pro';-inkscape-font-specification:'Adobe Garamond Pro'-Regular;writing-mode:lr-tb;fill:#231f20;fill-opacity:1;fill-rule:nonzero;stroke:none"
           id="text3522"><tspan
             x="0 3.684 9.8640003 14.616 17.615999 21.492001 26.292 32.124001 35.987999 40.740002 43.740002 46.824001 53.124001 56.807999 61.560001 65.422798 70.174797 74.050797 77.734802 80.818802 87.118797 92.470802 95.470802 101.1108 106.2228 110.9748 114.9588 117.9588 121.6428 127.8228 132.5748 135.5748 140.3748 146.2068 152.3508 156.33479 160.2108 164.9628 167.9628 173.7948 177.2748 180.2748 185.1228"
             y="0"
             sodipodi:role="line"
             id="tspan3524">the score interesting over the course of a </tspan></text>
<text
           transform="matrix(1,0,0,-1,56.6929,474.3249)"
           style="font-variant:normal;font-weight:normal;font-size:12px;font-family:'Adobe Garamond Pro';-inkscape-font-specification:'Adobe Garamond Pro'-Regular;writing-mode:lr-tb;fill:#231f20;fill-opacity:1;fill-rule:nonzero;stroke:none"
           id="text3526"><tspan
             x="0 6.0840001 10.836 14.916 18.396 24.228001 28.212 37.655998 42.504002 48.804001 53.604 58.355999 61.355999 64.356003 71.832001 74.832001 78.708 83.459999 88.260002 94.092003 100.392 106.5 109.5 115.608"
             y="0"
             sodipodi:role="line"
             id="tspan3528">performance. A second di</tspan></text>
<text
           transform="matrix(1,0,0,-1,175.3849,474.3249)"
           style="font-variant:normal;font-weight:normal;font-size:12px;font-family:'Adobe Garamond Pro';-inkscape-font-specification:'Adobe Garamond Pro'-Regular;writing-mode:lr-tb;fill:#231f20;fill-opacity:1;fill-rule:nonzero;stroke:none"
           id="text3530"><tspan
             x="0"
             y="0"
             id="tspan3532">ﬀ</tspan></text>
<text
           transform="matrix(1,0,0,-1,182.0809,474.3249)"
           style="font-variant:normal;font-weight:normal;font-size:12px;font-family:'Adobe Garamond Pro';-inkscape-font-specification:'Adobe Garamond Pro'-Regular;writing-mode:lr-tb;fill:#231f20;fill-opacity:1;fill-rule:nonzero;stroke:none"
           id="text3534"><tspan
             x="0 4.7519999 8.6135998 13.3656 19.6656 24.465599 29.2176 32.217602 35.301601 39.177601 42.177601 45.861599 52.041599 56.793598 59.793598 65.817596 69.801598 72.885597 77.409599 83.709602"
             y="0"
             sodipodi:role="line"
             id="tspan3536">erence is the Frizn </tspan></text>
<text
           transform="matrix(1,0,0,-1,56.6929,459.9249)"
           style="font-variant:normal;font-weight:normal;font-size:12px;font-family:'Adobe Garamond Pro';-inkscape-font-specification:'Adobe Garamond Pro'-Regular;writing-mode:lr-tb;fill:#231f20;fill-opacity:1;fill-rule:nonzero;stroke:none"
           id="text3538"><tspan
             x="0 6.0840001 10.836 16.667999 22.752001 25.716 30.108 31.968 35.844002 38.844002 42.706799 47.458801 50.422798 55.270802 58.9548 62.038799 67.870796 74.170799 78.046799 84.226799 87.310799 93.394798 96.394798 100.0788 105.9108 108.9108 118.3548 124.4988 128.3748 131.4588 136.2588 141.1068 144.0708 147.0708 151.8708 157.7028 164.00281 167.8788 171.56281 175.5468 180.39481 183.47881 189.77879 193.4628 197.33881 200.33881"
             y="0"
             sodipodi:role="line"
             id="tspan3540">people’s relationship to musical constraints. </tspan></text>
<text
           transform="matrix(1,0,0,-1,56.6929,445.5249)"
           style="font-variant:normal;font-weight:normal;font-size:12px;font-family:'Adobe Garamond Pro';-inkscape-font-specification:'Adobe Garamond Pro'-Regular;writing-mode:lr-tb;fill:#231f20;fill-opacity:1;fill-rule:nonzero;stroke:none"
           id="text3542"><tspan
             x="0 10.512 16.656 20.532 23.615999 28.416 33.264 36.228001 39.228001 42.312 48.612 52.296001 57.048 62.400002 66.384003 69.468002 73.152 78.407997 81.407997 84.491997 90.792 93.792 99.814796 103.7988 106.8828 111.4068 117.7068 123.0588 127.9068 131.7216 137.82961 140.82961 143.9136 147.7896 150.7896 155.6376 158.6376 164.6376 167.7216 173.07359 176.07359 182.18159 186.93359 191.7816 194.74561 197.74561"
             y="0"
             sodipodi:role="line"
             id="tspan3544">Musical integrity in Frizngård is a big deal, </tspan></text>
<text
           transform="matrix(1,0,0,-1,56.6929,431.1249)"
           style="font-variant:normal;font-weight:normal;font-size:12px;font-family:'Adobe Garamond Pro';-inkscape-font-specification:'Adobe Garamond Pro'-Regular;writing-mode:lr-tb;fill:#231f20;fill-opacity:1;fill-rule:nonzero;stroke:none"
           id="text3546"><tspan
             x="0 4.848 11.148 17.256001 20.256001 26.34 31.091999 36.924 43.007999 45.972 50.723999 53.723999 57.408001 63.588001 68.339996 72.202797 76.954803 79.954803 87.874802 90.958801 97.258797 100.2588 109.7028 115.8468 119.7228 122.8068 127.6068 132.4548 135.41879 138.41879 142.2948 145.97881 149.8416 154.5936 159.3456 163.0296 166.0296 170.82961 174.6936 179.4456 185.5536 188.5536 194.4816 199.73759"
             y="0"
             sodipodi:role="line"
             id="tspan3548">and people there win musical street cred by </tspan></text>
<text
           transform="matrix(1,0,0,-1,56.6929,416.7249)"
           style="font-variant:normal;font-weight:normal;font-size:12px;font-family:'Adobe Garamond Pro';-inkscape-font-specification:'Adobe Garamond Pro'-Regular;writing-mode:lr-tb;fill:#231f20;fill-opacity:1;fill-rule:nonzero;stroke:none"
           id="text3550"><tspan
             x="0 4.848 8.9280005 12.612 15.696 21.959999 26.76 29.844 34.692001 37.655998 40.619999 45.875999 48.875999 58.32 63.167999 68.952003 72.036003 78.335999 83.688004 86.688004 90.372002 96.552002 101.304 104.304 112.224 116.208 119.292 122.976 126.06 132.36 137.71201 140.71201 146.79601 150.7056 156.5376 161.3376 166.0896 169.96561 173.8416 176.8416 186.2856 192.1176 195.98039 200.73241"
             y="0"
             sodipodi:role="line"
             id="tspan3552">artifcially making the writing process more </tspan></text>
<text
           transform="matrix(1,0,0,-1,56.6929,402.3249)"
           style="font-variant:normal;font-weight:normal;font-size:12px;font-family:'Adobe Garamond Pro';-inkscape-font-specification:'Adobe Garamond Pro'-Regular;writing-mode:lr-tb;fill:#231f20;fill-opacity:1;fill-rule:nonzero;stroke:none"
           id="text3554"><tspan
             x="0 6.1079998"
             y="0"
             sodipodi:role="line"
             id="tspan3556">di</tspan></text>
<text
           transform="matrix(1,0,0,-1,65.8849,402.3249)"
           style="font-variant:normal;font-weight:normal;font-size:12px;font-family:'Adobe Garamond Pro';-inkscape-font-specification:'Adobe Garamond Pro'-Regular;writing-mode:lr-tb;fill:#231f20;fill-opacity:1;fill-rule:nonzero;stroke:none"
           id="text3558"><tspan
             x="0"
             y="0"
             id="tspan3560">ﬃ</tspan></text>
<text
           transform="matrix(1,0,0,-1,75.3649,402.3249)"
           style="font-variant:normal;font-weight:normal;font-size:12px;font-family:'Adobe Garamond Pro';-inkscape-font-specification:'Adobe Garamond Pro'-Regular;writing-mode:lr-tb;fill:#231f20;fill-opacity:1;fill-rule:nonzero;stroke:none"
           id="text3562"><tspan
             x="0 4.8000002 10.944 13.908 17.591999 20.591999 23.410801 34.810799 37.894798 41.5788 47.758801 53.590801 59.734798 63.4188 66.4188 70.282799 75.034798 80.146797 84.898804 89.746803 92.7108 95.7948 102.0948 107.4468 110.4468 114.1308 119.9628 125.7948 128.7948 138.2388 144.3828 149.1828 155.36279 158.36279 163.2108 169.2108 175.0428 181.1868 184.8708"
             y="0"
             sodipodi:role="line"
             id="tspan3564">cult. Without revealing too much about </tspan></text>
<text
           transform="matrix(1,0,0,-1,56.6929,387.9249)"
           style="font-variant:normal;font-weight:normal;font-size:12px;font-family:'Adobe Garamond Pro';-inkscape-font-specification:'Adobe Garamond Pro'-Regular;writing-mode:lr-tb;fill:#231f20;fill-opacity:1;fill-rule:nonzero;stroke:none"
           id="text3566"><tspan
             x="0 3.684 9.8640003 14.616 17.615999 21.492001 26.292 32.124001 35.987999 40.740002 43.740002 46.740002 51.922798 57.754799 63.8988 66.898804 74.818802 77.902802 80.866798 83.830803 86.830803 90.706802 95.458801 100.2108 103.2108 108.0588 111.9348 114.9348 120.1188 125.9508 132.0948 135.0948 138.05881 142.81081 147.6588 151.13879 154.13879 157.8228 164.00281 167.9136 173.74561 179.8896 185.24159 191.4216 194.4216 198.10561 204.2856 209.0376"
             y="0"
             sodipodi:role="line"
             id="tspan3568">the score, you will see as you leaf through the </tspan></text>
<text
           transform="matrix(1,0,0,-1,56.6929,373.5249)"
           style="font-variant:normal;font-weight:normal;font-size:12px;font-family:'Adobe Garamond Pro';-inkscape-font-specification:'Adobe Garamond Pro'-Regular;writing-mode:lr-tb;fill:#231f20;fill-opacity:1;fill-rule:nonzero;stroke:none"
           id="text3570"><tspan
             x="0 3.8759999 8.6759996 14.508 18.372 23.124001 26.124001 30.972 37.271999 43.380001 46.380001 49.344002 52.428001 56.304001 59.987999 64.739998 71.040001 74.040001 77.723999 83.556 86.556 90.4188 95.170799 99.970802 105.8028 109.6188 115.7268 118.8108 125.1108 130.4628 134.33881 137.33881 141.0228 147.2028 152.0508 155.7348 158.7348 162.41879 168.5988 173.3508 177.21359 181.96561 184.96561 189.8136 193.6776 198.4296"
             y="0"
             sodipodi:role="line"
             id="tspan3572">score and listen to recordings that there are </tspan></text>
<text
           transform="matrix(1,0,0,-1,56.6929,359.1249)"
           style="font-variant:normal;font-weight:normal;font-size:12px;font-family:'Adobe Garamond Pro';-inkscape-font-specification:'Adobe Garamond Pro'-Regular;writing-mode:lr-tb;fill:#231f20;fill-opacity:1;fill-rule:nonzero;stroke:none"
           id="text3574"><tspan
             x="0 4.848 7.8119998 10.776 13.776 17.652 23.483999 27.562799 31.246799 35.122799 38.122799 43.9548 47.434799 50.434799 55.7868 60.6348 70.078796 74.830803 78.706802 81.706802 85.546799 88.546799 93.346802 98.194801 104.4948 110.3268 116.6268 120.5028 123.5028 126.5028 131.3028 136.1508 142.45081 146.1348 152.27879 156.1548 159.1548 165.41879 169.4028 178.8468 184.9908 188.86681 192.7068 197.4588 201.33479 204.33479"
             y="0"
             sodipodi:role="line"
             id="tspan3576">all sorts of games - canons, cantus frmus-es, </tspan></text>
<text
           transform="matrix(1,0,0,-1,56.6929,344.7249)"
           style="font-variant:normal;font-weight:normal;font-size:12px;font-family:'Adobe Garamond Pro';-inkscape-font-specification:'Adobe Garamond Pro'-Regular;writing-mode:lr-tb;fill:#231f20;fill-opacity:1;fill-rule:nonzero;stroke:none"
           id="text3578"><tspan
             x="0 3.8640001 8.6160002 14.796 19.643999 23.628 33.071999 38.903999 45.203999 48.287998 52.812 57.66 61.344002 64.428001 70.260002 76.559998 80.435997 83.435997 87.276001 90.276001 93.959999 100.14 104.988 108.672 111.672 115.152 120.984 124.968 134.412 137.412 141.09599 147.276 152.028 155.028 161.028 165.87601 170.67599 176.46001 182.46001 188.29201 194.592 199.34399"
             y="0"
             sodipodi:role="line"
             id="tspan3580">reharmonizations - that form the backbone </tspan></text>
<text
           transform="matrix(1,0,0,-1,56.6929,330.3249)"
           style="font-variant:normal;font-weight:normal;font-size:12px;font-family:'Adobe Garamond Pro';-inkscape-font-specification:'Adobe Garamond Pro'-Regular;writing-mode:lr-tb;fill:#231f20;fill-opacity:1;fill-rule:nonzero;stroke:none"
           id="text3582"><tspan
             x="0 5.7719998 9.1920004 12.132 17.796 20.82 24.444 27.384001 36.792 41.256001 44.675999 49.464001 53.388 57.203999 59.964001 70.584 75.779999 79.596001 82.800003 85.739998 88.68 94.5 99.288002 103.212 106.152 109.572 113.424 119.196 128.58 131.52 137.46001 142.15199 145.17599 151.416 156.70799 159.64799 164.436 170.67599 173.616 179.388 185.328 188.23199 191.256 197.16 203.244 207.996"
             y="0"
             sodipodi:role="line"
             id="tspan3584">of Sit Ozfårs Wysr. Far from being an oblique </tspan></text>
<text
           transform="matrix(1,0,0,-1,56.6929,315.9249)"
           style="font-variant:normal;font-weight:normal;font-size:12px;font-family:'Adobe Garamond Pro';-inkscape-font-specification:'Adobe Garamond Pro'-Regular;writing-mode:lr-tb;fill:#231f20;fill-opacity:1;fill-rule:nonzero;stroke:none"
           id="text3586"><tspan
             x="0 4.848 11.148 17.256001 20.256001 26.436001 31.188 35.172001 44.616001 49.368 53.051998 56.136002 60.936001 63.936001 68.688004 73.726799 78.478798 82.3908 87.190804 90.274803 94.150803 98.902802 101.9028 104.9028 108.5868 114.7668 119.5188 123.3948 128.1468 131.1468 135.94679 141.77879 148.0788 151.9548 155.63879 159.6228 164.47079 167.55479 173.8548 177.5388 181.41479 184.41479 189.7668 192.8508 197.9604 202.7124"
             y="0"
             sodipodi:role="line"
             id="tspan3588">and hermetic exercise, these constraints give </tspan></text>
<text
           transform="matrix(1,0,0,-1,56.6929,301.5249)"
           style="font-variant:normal;font-weight:normal;font-size:12px;font-family:'Adobe Garamond Pro';-inkscape-font-specification:'Adobe Garamond Pro'-Regular;writing-mode:lr-tb;fill:#231f20;fill-opacity:1;fill-rule:nonzero;stroke:none"
           id="text3590"><tspan
             x="0 3.684 9.8640003 14.616 17.615999 27.059999 33.203999 37.080002 40.164001 44.964001 47.964001 52.812 55.812 60.995998 64.080002 67.764 72.612 75.575996 78.575996 82.056 87.888 91.798798 96.598801 101.3508 104.3508 108.0348 114.2148 119.0628 122.7468 125.7468 135.1908 140.0388 145.8228 150.5748 154.45081 157.45081 160.53481 164.2188 167.2188 173.2188 179.0508 182.7348 188.91479"
             y="0"
             sodipodi:role="line"
             id="tspan3592">the music a vital force that makes it both </tspan></text>
<text
           transform="matrix(1,0,0,-1,56.6929,287.1249)"
           style="font-variant:normal;font-weight:normal;font-size:12px;font-family:'Adobe Garamond Pro';-inkscape-font-specification:'Adobe Garamond Pro'-Regular;writing-mode:lr-tb;fill:#231f20;fill-opacity:1;fill-rule:nonzero;stroke:none"
           id="text3594"><tspan
             x="0 3.4200001 8.2080002 17.591999 20.615999 23.52 26.544001 31.332001 35.256001 38.195999 42.984001 49.223999 55.271999 58.212002 64.260002 67.283997 71.099998 74.723999 79.512001 85.751999 89.375999 92.316002 95.255997 103.548 109.32 115.56 119.184 123.108 127.896 132.036 137.23199 140.172 143.79601 149.56799 152.508 157.29601 160.2 169.584 175.356 179.172 182.79601 185.73599 190.42799 195.48 200.172 204.312 209.56799"
             y="0"
             sodipodi:role="line"
             id="tspan3596">familiar and distant. Contrary to almost every </tspan></text>
<text
           transform="matrix(1,0,0,-1,56.6929,272.7249)"
           style="font-variant:normal;font-weight:normal;font-size:12px;font-family:'Adobe Garamond Pro';-inkscape-font-specification:'Adobe Garamond Pro'-Regular;writing-mode:lr-tb;fill:#231f20;fill-opacity:1;fill-rule:nonzero;stroke:none"
           id="text3598"><tspan
             x="0 6.0840001 9.1680002 13.92 18.719999 23.472 26.472 32.304001 35.784 38.784 43.632 49.740002 54.924 58.007999 62.807999 67.559998 70.559998 74.615997 77.615997 83.795998 88.643997 93.754799 98.506798 101.5068 106.8588 112.6908 116.3748 120.0588 124.8108 131.11079 134.11079 138.9588 144.9588 150.7908 156.9348 160.6188 163.6188 171.5388 175.5228 178.6068 182.2908 185.97479 190.72681 197.02679"
             y="0"
             sodipodi:role="line"
             id="tspan3600">piece of advice I have gotten about written </tspan></text>
<text
           transform="matrix(1,0,0,-1,56.6929,258.3249)"
           style="font-variant:normal;font-weight:normal;font-size:12px;font-family:'Adobe Garamond Pro';-inkscape-font-specification:'Adobe Garamond Pro'-Regular;writing-mode:lr-tb;fill:#231f20;fill-opacity:1;fill-rule:nonzero;stroke:none"
           id="text3602"><tspan
             x="0 9.4440002 15.588 19.464001 22.548 27.348 30.348 33.348 37.403999 40.403999 46.403999 51.155998 54.119999 57.203999 61.956001 67.066803 71.818802 74.818802 78.5028 84.6828 89.5308 93.214798 96.214798 102.2988 107.0508 112.8828 118.9668 121.9308 126.6828 129.6828 134.53081 138.3936 143.1456 146.1456 150.9456 157.0896 161.07359 164.15759 169.98959 176.13361 180.0096 183.0096 186.0096 189.6936 195.8736 200.7216 204.40559"
             y="0"
             sodipodi:role="line"
             id="tspan3604">music, I believe that people are curious, that </tspan></text>
<text
           transform="matrix(1,0,0,-1,56.6929,243.9249)"
           style="font-variant:normal;font-weight:normal;font-size:12px;font-family:'Adobe Garamond Pro';-inkscape-font-specification:'Adobe Garamond Pro'-Regular;writing-mode:lr-tb;fill:#231f20;fill-opacity:1;fill-rule:nonzero;stroke:none"
           id="text3606"><tspan
             x="0 9.4440002 14.292 20.591999 25.848 28.848 34.632 40.931999 46.619999 54.540001 57.540001 63.720001 69.406799 77.326797 80.326797 84.010803 89.842796 92.842796 96.706802 101.4588 106.3068 112.4148 115.4148 124.8588 131.00281 134.8788 137.9628 142.7628 145.7628 150.61079 156.9108 163.0188 166.0188 169.7028 175.8828 180.7308 184.41479"
             y="0"
             sodipodi:role="line"
             id="tspan3608">many know how to read music and that </tspan></text>
<text
           transform="matrix(1,0,0,-1,56.6929,229.5249)"
           style="font-variant:normal;font-weight:normal;font-size:12px;font-family:'Adobe Garamond Pro';-inkscape-font-specification:'Adobe Garamond Pro'-Regular;writing-mode:lr-tb;fill:#231f20;fill-opacity:1;fill-rule:nonzero;stroke:none"
           id="text3610"><tspan
             x="0 3.684 9.8640003 14.616 18.48 23.232 26.232 30.983999 36.167999 39.251999 43.127998 46.812 50.688 53.688 58.535999 61.535999 67.620003 70.584 75.335999 80.183998 84.059998 90.204002 94.066803 98.818802 101.8188 104.9028 111.2028 114.2028 120.3108 123.3948 127.2708 132.0708 137.70959 142.82159 147.57359 151.5576 154.6416 160.9416 166.29359 169.29359 174.1416 177.1416 181.01759 185.8176 191.6496 195.5136 200.26559"
             y="0"
             sodipodi:role="line"
             id="tspan3612">there exists a pleasure in discovering a score </tspan></text>
<text
           transform="matrix(1,0,0,-1,56.6929,215.1249)"
           style="font-variant:normal;font-weight:normal;font-size:12px;font-family:'Adobe Garamond Pro';-inkscape-font-specification:'Adobe Garamond Pro'-Regular;writing-mode:lr-tb;fill:#231f20;fill-opacity:1;fill-rule:nonzero;stroke:none"
           id="text3614"><tspan
             x="0 3.0840001 9.3839998 12.384 15.468 19.152 23.028 26.028 33.948002 37.931999 41.015999 44.700001 48.383999 53.136002 59.436001 62.436001 65.916 71.748001 75.732002 85.176003 88.176003 93.024002 96.900002 99.900002 102.984 106.668 109.668 113.5296 118.2816 121.2456 126.0936 129.7776 134.5296 138.40559 141.40559 145.0896 150.9216 153.9216 157.60561 163.7856 168.5376 171.5376 180.9816 187.1256 191.0016 194.0856 198.8856"
             y="0"
             sodipodi:role="line"
             id="tspan3616">in its written form as it relates to the music </tspan></text>
<text
           transform="matrix(1,0,0,-1,56.6929,200.7249)"
           style="font-variant:normal;font-weight:normal;font-size:12px;font-family:'Adobe Garamond Pro';-inkscape-font-specification:'Adobe Garamond Pro'-Regular;writing-mode:lr-tb;fill:#231f20;fill-opacity:1;fill-rule:nonzero;stroke:none"
           id="text3618"><tspan
             x="0 3.684 9.8640003 14.712 18.396 21.396 24.48 28.164 31.164 35.028 39.779999 45.863998 49.726799 54.478802 58.354801 63.1068 69.406799 73.090797 76.966797 79.966797 82.966797 87.022797 90.022797 97.942802 101.0268 103.9908 106.9548 109.9548 116.2548 121.0068 126.1176 130.8696 134.85361 137.85361 142.65359 145.6176 150.46561 153.54961 162.99361 165.99361 169.6776 175.8576 180.7056 184.3896 187.3896 193.1136 196.1976 199.88161"
             y="0"
             sodipodi:role="line"
             id="tspan3620">that it represents. I will never claim that Sit </tspan></text>
<text
           transform="matrix(1,0,0,-1,56.6929,186.3249)"
           style="font-variant:normal;font-weight:normal;font-size:12px;font-family:'Adobe Garamond Pro';-inkscape-font-specification:'Adobe Garamond Pro'-Regular;writing-mode:lr-tb;fill:#231f20;fill-opacity:1;fill-rule:nonzero;stroke:none"
           id="text3622"><tspan
             x="0 9.4680004 13.992 17.472 22.32 26.304001 30.18 33 43.68 48.936001 52.812 56.796001 59.796001 62.880001 66.755997 69.755997 75.755997 80.508003 84.384003 88.068001 91.068001 97.211998 103.512 109.62 114.372 118.356 122.232 125.916 131.748 137.58 143.688 146.688 151.87199 154.95599 159.804 162.804 166.48801 172.668 177.42 180.42 186.504 191.35201 197.436 202.188 206.172"
             y="0"
             sodipodi:role="line"
             id="tspan3624">Ozfårs Wysr is best understood via the paper </tspan></text>
<text
           transform="matrix(1,0,0,-1,56.6929,171.9249)"
           style="font-variant:normal;font-weight:normal;font-size:12px;font-family:'Adobe Garamond Pro';-inkscape-font-specification:'Adobe Garamond Pro'-Regular;writing-mode:lr-tb;fill:#231f20;fill-opacity:1;fill-rule:nonzero;stroke:none"
           id="text3626"><tspan
             x="0 9.4440002 14.196 20.304001 23.388 29.532 38.976002 41.976002 44.976002 50.976002 57.119999 60.804001 63.804001 67.860001 70.860001 78.779999 81.863998 84.828003 87.792 90.792 94.667999 99.515999 104.772 107.772 111.456 117.636 122.484 126.168 129.168 135.276 140.028 142.992 148.17599 151.25999 157.56 162.912 165.912 168.996 175.29601 178.98 184.812 187.812 191.496 197.67599 202.42799"
             y="0"
             sodipodi:role="line"
             id="tspan3628">medium, but I will say that delving into the </tspan></text>
<text
           transform="matrix(1,0,0,-1,56.6929,157.5249)"
           style="font-variant:normal;font-weight:normal;font-size:12px;font-family:'Adobe Garamond Pro';-inkscape-font-specification:'Adobe Garamond Pro'-Regular;writing-mode:lr-tb;fill:#231f20;fill-opacity:1;fill-rule:nonzero;stroke:none"
           id="text3630"><tspan
             x="0 3.8759999 8.6759996 14.508 18.372 23.124001 26.124001 34.043999 37.127998 40.091999 43.056 46.056 49.139999 55.439999 60.240002 64.102798 68.854797 73.702797 77.578796 82.330803 85.330803 90.514801 96.346802 102.4908 106.4748 109.4748 112.4388 115.5228 119.3988 123.0828 127.8348 134.1348 137.2188 143.5188 148.8708 151.8708 155.3508 161.4948 167.7948 170.7948 176.7216 181.9776 184.9776 189.82561 193.5096"
             y="0"
             sodipodi:role="line"
             id="tspan3632">score will increase your listening fun by at </tspan></text>
<text
           transform="matrix(1,0,0,-1,56.6929,143.1249)"
           style="font-variant:normal;font-weight:normal;font-size:12px;font-family:'Adobe Garamond Pro';-inkscape-font-specification:'Adobe Garamond Pro'-Regular;writing-mode:lr-tb;fill:#231f20;fill-opacity:1;fill-rule:nonzero;stroke:none"
           id="text3634"><tspan
             x="0 2.964 7.7160001 12.564 16.440001 20.124001 23.124001 26.808001 34.728001 40.560001 43.560001 49.391998 53.206799 59.3148 64.066803 68.050797 71.926804 74.926804 80.758797 84.2388 87.2388 96.6828 101.5308 106.8828 113.1828 116.2668 119.9508 126.0948 132.2028 136.9548"
             y="0"
             sodipodi:role="line"
             id="tspan3636">least two orders of magnitude.</tspan></text>
<text
           transform="matrix(1,0,0,-1,303.3049,605.8209)"
           style="font-variant:normal;font-weight:normal;font-size:12px;font-family:'Adobe Garamond Pro';-inkscape-font-specification:'Adobe Garamond Pro'-Regular;writing-mode:lr-tb;fill:#231f20;fill-opacity:1;fill-rule:nonzero;stroke:none"
           id="text3638"><tspan
             x="0 9.4680004 13.152 19.332001 24.084 28.068001 31.068001 34.751999 40.931999 45.779999 52.080002 55.080002 58.764 64.944 69.695999 73.571999 78.323997 81.323997 84.407997 90.515999 93.599998 99.431999 103.308 108.564 114.864 119.664 123.648 128.496 132.37199 135.45599 140.20799 144.084 147.084 150.084 153.76801 159.948 164.7 167.7 177.144 183.28799 187.164 190.248 195.048"
             y="0"
             sodipodi:role="line"
             id="tspan3640">Other than these idiosyncrasies, the music </tspan></text>
<text
           transform="matrix(1,0,0,-1,297.6409,591.4209)"
           style="font-variant:normal;font-weight:normal;font-size:12px;font-family:'Adobe Garamond Pro';-inkscape-font-specification:'Adobe Garamond Pro'-Regular;writing-mode:lr-tb;fill:#231f20;fill-opacity:1;fill-rule:nonzero;stroke:none"
           id="text3642"><tspan
             x="0 3.48 7.3920002 13.224 22.667999 25.667999 31.691999 35.675999 38.759998 43.284 49.584 54.936001 59.784 63.598801 69.706802 72.706802 75.790802 79.666801 82.666801 86.506798 92.806801 98.638802 102.3228 105.3228 109.1988 115.3428 119.3268 125.4108 129.39481 132.47881 136.3548 139.4388 145.7388 151.09081 154.05479 159.31081 163.1508 166.1508 172.45081 178.28281 181.9668 184.9668 188.6508 194.8308 199.6788 203.36279"
             y="0"
             sodipodi:role="line"
             id="tspan3644">from Frizngård is (not surprisingly) not that </tspan></text>
<text
           transform="matrix(1,0,0,-1,297.6409,577.0209)"
           style="font-variant:normal;font-weight:normal;font-size:12px;font-family:'Adobe Garamond Pro';-inkscape-font-specification:'Adobe Garamond Pro'-Regular;writing-mode:lr-tb;fill:#231f20;fill-opacity:1;fill-rule:nonzero;stroke:none"
           id="text3646"><tspan
             x="0 3.48 8.3280001 12.312 15.312 18.792 22.704 28.535999 37.98 40.98 48.900002 55.080002 59.928001 63.612 66.612 70.667999 73.667999 76.632004 79.716003 85.5 90.251999 93.251999 96.935997 102.768 105.768 113.688 117.672 120.756 124.44 129.192 132.192 135.192 139.248 142.248 145.21201 150.84959 155.96159 160.71359 163.71359 166.7496 171.5976 176.1216 180.6456 183.6456"
             y="0"
             sodipodi:role="line"
             id="tspan3648">far from what I like to write. I love jazz, </tspan></text>
<text
           transform="matrix(1,0,0,-1,297.6409,562.6209)"
           style="font-variant:normal;font-weight:normal;font-size:12px;font-family:'Adobe Garamond Pro';-inkscape-font-specification:'Adobe Garamond Pro'-Regular;writing-mode:lr-tb;fill:#231f20;fill-opacity:1;fill-rule:nonzero;stroke:none"
           id="text3650"><tspan
             x="0 4.0560002 7.0560002 10.02 15.66 20.771999 25.524 28.524 32.507999 35.591999 40.391998 46.571999 49.571999 55.751999 60.599998 64.584 74.028 79.860001 86.160004 90.394798 93.394798 96.394798 100.4508 103.4508 106.4148 112.0548 117.1668 121.9188 124.9188 128.9028 135.08279 140.33881 144.0228 150.2028 159.6468 162.7308 167.53081"
             y="0"
             sodipodi:role="line"
             id="tspan3652">I love rich harmony, I love rhythmic </tspan></text>
<text
           transform="matrix(1,0,0,-1,297.6409,548.2209)"
           style="font-variant:normal;font-weight:normal;font-size:12px;font-family:'Adobe Garamond Pro';-inkscape-font-specification:'Adobe Garamond Pro'-Regular;writing-mode:lr-tb;fill:#231f20;fill-opacity:1;fill-rule:nonzero;stroke:none"
           id="text3654"><tspan
             x="0 5.184 8.2679996 12.348 16.032 22.176001 28.007999 31.884001 34.967999 38.652 43.908001 46.908001 51.756001 58.056 64.164001 67.164001 71.220001 74.220001 77.183998 82.8228 87.934799 92.686798 95.686798 98.650803 103.9068 107.8908 110.9748 115.7748 120.6228 123.5868 126.5868 130.4628 133.5468 139.8468 145.19881 148.28281 154.58279 159.9348 162.9348 165.9348 169.7016 173.3856 176.3856 179.4696 183.3456"
             y="0"
             sodipodi:role="line"
             id="tspan3656">virtuosity and I love lyrical singing. It is </tspan></text>
<text
           transform="matrix(1,0,0,-1,297.6409,533.8209)"
           style="font-variant:normal;font-weight:normal;font-size:12px;font-family:'Adobe Garamond Pro';-inkscape-font-specification:'Adobe Garamond Pro'-Regular;writing-mode:lr-tb;fill:#231f20;fill-opacity:1;fill-rule:nonzero;stroke:none"
           id="text3658"><tspan
             x="0 4.0799999 10.224 19.667999 25.5 31.643999 35.506802 40.258801 46.366798 49.366798 53.0508 59.230801 64.078796 67.762802 70.762802 76.630798 81.430801 87.610802 93.442802 98.194801 104.4948 110.4948 115.2468 119.2308 124.5828 127.5828 133.41479 139.7148 144.5148 149.2668 152.2668 158.2308 164.3748 167.4588 173.5428 179.6268 184.3788 190.4868"
             y="0"
             sodipodi:role="line"
             id="tspan3660">rumoured that Schoenberg once quipped </tspan></text>
<text
           transform="matrix(1,0,0,-1,297.6409,519.4209)"
           style="font-variant:normal;font-weight:normal;font-size:12px;font-family:'Adobe Garamond Pro';-inkscape-font-specification:'Adobe Garamond Pro'-Regular;writing-mode:lr-tb;fill:#231f20;fill-opacity:1;fill-rule:nonzero;stroke:none"
           id="text3662"><tspan
             x="0 3.684 9.8640003 14.712 18.396 21.396 27.576 32.327999 35.327999 43.248001 46.332001 50.208 56.388 61.139999 67.248001 70.248001 76.428001 81.18 84.18 88.980003 94.811996 100.956 103.92 110.028 113.028 120.948 124.932 128.01601 131.7 136.452 139.452 142.416 145.5 151.284 156.036 159.036 167.70959 171.6936 174.7776 179.5296 184.88161 187.88161"
             y="0"
             sodipodi:role="line"
             id="tspan3664">that he wished he could write like Grieg. </tspan></text>
<text
           transform="matrix(1,0,0,-1,297.6409,505.0209)"
           style="font-variant:normal;font-weight:normal;font-size:12px;font-family:'Adobe Garamond Pro';-inkscape-font-specification:'Adobe Garamond Pro'-Regular;writing-mode:lr-tb;fill:#231f20;fill-opacity:1;fill-rule:nonzero;stroke:none"
           id="text3666"><tspan
             x="0 9.4680004 12.948 15.948 20.747999 26.58 32.723999 36.708 40.584 45.335999 48.335999 54.515999 59.268002 62.268002 68.267998 73.068001 78.900002 85.043999 88.008003 94.115997 100.116 103.116 111.036 115.02 118.104 121.788 126.54 129.53999 132.504 135.588 141.37199 146.12399 149.12399 155.304 158.388 167.832 170.832 173.832 179.832 185.976 189.66 192.66 198.84 203.592"
             y="0"
             sodipodi:role="line"
             id="tspan3668">Of course he _could_ write like him, but he </tspan></text>
<text
           transform="matrix(1,0,0,-1,297.6409,490.6209)"
           style="font-variant:normal;font-weight:normal;font-size:12px;font-family:'Adobe Garamond Pro';-inkscape-font-specification:'Adobe Garamond Pro'-Regular;writing-mode:lr-tb;fill:#231f20;fill-opacity:1;fill-rule:nonzero;stroke:none"
           id="text3670"><tspan
             x="0 3.48 8.2320004 11.196 14.88 17.879999 22.728001 25.728001 31.812 36.563999 41.363998 47.507999 50.472 53.556 58.403999 62.388 65.388 71.568001 74.652 78.528 82.211998 88.043999 92.028 95.112 99.912003 104.76 107.724 110.724 118.5696 123.3216 126.4056 131.7576 137.93761 141.6216 144.6216 148.3056 154.4856 159.3336 163.01759 166.01759 169.8936 175.7256 185.1696 189.9216 196.10159 201.78841 209.7084"
             y="0"
             sodipodi:role="line"
             id="tspan3672">felt a peculiar historical weight that somehow </tspan></text>
<text
           transform="matrix(1,0,0,-1,297.6409,476.2209)"
           style="font-variant:normal;font-weight:normal;font-size:12px;font-family:'Adobe Garamond Pro';-inkscape-font-specification:'Adobe Garamond Pro'-Regular;writing-mode:lr-tb;fill:#231f20;fill-opacity:1;fill-rule:nonzero;stroke:none"
           id="text3674"><tspan
             x="0 9.5039997 14.412 20.58 25.392 28.452 32.195999 38.436001 41.580002 45.515999 48.576 51.720001 58.080002 62.015999 67.907997 74.112 78.972 82.115997 87.024002 93.384003 98.244003 103.056 106.116 109.26 115.62 120.528 126.672 132.81599 136.78799 142.67999 148.82401 152.868 156.01199 160.92 164.664 169.476 172.476"
             y="0"
             sodipodi:role="line"
             id="tspan3676">made this insouciance inappropriate. </tspan></text>
<text
           transform="matrix(1,0,0,-1,297.6409,461.8209)"
           style="font-variant:normal;font-weight:normal;font-size:12px;font-family:'Adobe Garamond Pro';-inkscape-font-specification:'Adobe Garamond Pro'-Regular;writing-mode:lr-tb;fill:#231f20;fill-opacity:1;fill-rule:nonzero;stroke:none"
           id="text3678"><tspan
             x="0 5.9400001 10.692 14.676 20.856001 25.704 31.788 35.664001 38.664001 41.748001 45.431999 49.307999 52.307999 61.751999 67.008003 70.008003 73.786797 78.610802 86.5308 89.614799 93.490799 99.670799 102.6708 108.8148 114.8988 120.8988 124.8828 127.9668 134.2668 139.6188 142.7028 149.00281 154.3548 157.3548 163.1868 167.17081 170.17081 179.61481 184.4628 189.7188 195.7188 200.47079"
             y="0"
             sodipodi:role="line"
             id="tspan3680">Perhaps its my Jewish upbringing or maybe </tspan></text>
<text
           transform="matrix(1,0,0,-1,297.6409,447.4209)"
           style="font-variant:normal;font-weight:normal;font-size:12px;font-family:'Adobe Garamond Pro';-inkscape-font-specification:'Adobe Garamond Pro'-Regular;writing-mode:lr-tb;fill:#231f20;fill-opacity:1;fill-rule:nonzero;stroke:none"
           id="text3682"><tspan
             x="0 4.848 7.848 10.812 15.66 20.459999 26.243999 29.243999 35.076 38.556 41.556 45.431999 50.183998 53.147999 56.627998 60.467999 65.267998 71.099998 77.400002 83.664001 89.772003 94.524002 100.824 105.624 110.376 113.376 116.376 122.376 128.52 132.20399 135.20399 139.25999 142.25999 148.092 151.57201 155.256 160.008 166.308 169.308 172.78799 177.53999 182.29201 185.256"
             y="0"
             sodipodi:role="line"
             id="tspan3684">a lack of self-confdence, but I often feel </tspan></text>
<text
           transform="matrix(1,0,0,-1,297.6409,433.0209)"
           style="font-variant:normal;font-weight:normal;font-size:12px;font-family:'Adobe Garamond Pro';-inkscape-font-specification:'Adobe Garamond Pro'-Regular;writing-mode:lr-tb;fill:#231f20;fill-opacity:1;fill-rule:nonzero;stroke:none"
           id="text3686"><tspan
             x="0 3.684 9.8640003 12.948 16.823999 19.823999 23.688 28.440001 34.523998 38.434799 44.2668 50.2668 55.114799 58.798801 61.882801 67.714798 74.014801 77.014801 81.862801 85.7388 88.7388 96.5868 101.3388 104.3028 107.2668 110.2668 113.2668 117.1788 123.4788 126.4788 132.2028 135.2868 138.97079 141.97079 151.43761 155.96159 159.4416 164.2896 168.27361 172.1496 174.9696 185.6496 190.90559 194.7816 198.04559 201.04559"
             y="0"
             sodipodi:role="line"
             id="tspan3688">this reprobation as well. In Sit Ozfårs Wysr, </tspan></text>
<text
           transform="matrix(1,0,0,-1,297.6409,418.6209)"
           style="font-variant:normal;font-weight:normal;font-size:12px;font-family:'Adobe Garamond Pro';-inkscape-font-specification:'Adobe Garamond Pro'-Regular;writing-mode:lr-tb;fill:#231f20;fill-opacity:1;fill-rule:nonzero;stroke:none"
           id="text3690"><tspan
             x="0 4.0560002 7.0560002 13.056 17.808001 20.771999 23.856001 28.608 33.720001 38.472 41.472 45.155998 51.335999 56.183998 59.868 62.868 66.552002 72.732002 77.484001 80.484001 86.664001 91.512001 97.811996 103.92 107.4 113.544 116.508 119.508 125.34 128.82001 131.82001 136.62 142.452 148.752 152.62801 156.312 160.29601 165.144 168.228 174.528 178.21201 182.088"
             y="0"
             sodipodi:role="line"
             id="tspan3692">I believe that the handful of constraints </tspan></text>
<text
           transform="matrix(1,0,0,-1,297.6409,404.2209)"
           style="font-variant:normal;font-weight:normal;font-size:12px;font-family:'Adobe Garamond Pro';-inkscape-font-specification:'Adobe Garamond Pro'-Regular;writing-mode:lr-tb;fill:#231f20;fill-opacity:1;fill-rule:nonzero;stroke:none"
           id="text3694"><tspan
             x="0 3.684 9.8640003 14.712 18.396 21.396 25.271999 31.452 36.299999 42.383999 47.136002 50.136002 53.82 60 64.751999 67.751999 71.627998 76.428001 82.260002 86.122803 90.874802 93.874802 98.722801 103.5228 107.2068 111.9588 118.0668 121.0668 125.9148 129.7908 132.7908 137.63879 143.9388 146.9388 150.0228 154.00681 157.9908 162.83881 166.5228 169.6068 175.4388 181.7388 186.58681 189.5508"
             y="0"
             sodipodi:role="line"
             id="tspan3696">that shape the score acted as an irrational </tspan></text>
<text
           transform="matrix(1,0,0,-1,297.6409,389.8209)"
           style="font-variant:normal;font-weight:normal;font-size:12px;font-family:'Adobe Garamond Pro';-inkscape-font-specification:'Adobe Garamond Pro'-Regular;writing-mode:lr-tb;fill:#231f20;fill-opacity:1;fill-rule:nonzero;stroke:none"
           id="text3698"><tspan
             x="0 6.0840001 12.228 16.212 21.563999 26.412001 30.096001 33.18 38.290798 43.042801 46.042801 49.726799 55.906799 60.754799 64.438797 67.438797 72.286797 75.250801 78.214798 83.902802 91.750801 96.5028 102.6108 105.6108 115.0548 119.8068 122.8068 126.4908 132.3228 135.3228 139.00681 143.8548 149.63879 154.39079 157.39079 162.2388 165.2388 171.3468 176.0988 180.8508 186.9348 189.8988 195.1548"
             y="0"
             sodipodi:role="line"
             id="tspan3700">purgative that allowed me to take a deeply </tspan></text>
<text
           transform="matrix(1,0,0,-1,297.6409,375.4209)"
           style="font-variant:normal;font-weight:normal;font-size:12px;font-family:'Adobe Garamond Pro';-inkscape-font-specification:'Adobe Garamond Pro'-Regular;writing-mode:lr-tb;fill:#231f20;fill-opacity:1;fill-rule:nonzero;stroke:none"
           id="text3702"><tspan
             x="0 6.0840001 10.836 14.82 18.695999 24.528 30.827999 35.675999 38.639999 41.639999 44.675999 50.507999 56.652 60.636002 66.935997 71.688004 76.944 79.944 83.424004 89.568001 92.531998 95.496002 98.496002 104.328 107.808 110.808 120.252 126.396 130.272 133.356 138.15601 143.004 145.968 148.968 154.32001 160.464 163.548 166.51199 170.196 175.452"
             y="0"
             sodipodi:role="line"
             id="tspan3704">personal journey full of musical guilty </tspan></text>
<text
           transform="matrix(1,0,0,-1,297.6409,361.0209)"
           style="font-variant:normal;font-weight:normal;font-size:12px;font-family:'Adobe Garamond Pro';-inkscape-font-specification:'Adobe Garamond Pro'-Regular;writing-mode:lr-tb;fill:#231f20;fill-opacity:1;fill-rule:nonzero;stroke:none"
           id="text3706"><tspan
             x="0 6.0840001 9.0480003 13.8 18.648001 22.524 28.667999 32.5308 37.282799 41.158798 44.158798 47.158798 51.214802 54.214802 60.394798 66.226799 72.310799 77.062798 80.062798 85.246803 91.078796 97.222801 100.2228 104.9748 111.2748 114.3108 119.9988 125.2548 128.25481 131.2188 134.3028 138.1788 141.86279 146.61481 152.91479 155.99879 162.2988 167.6508 170.6508 174.33479 180.16679"
             y="0"
             sodipodi:role="line"
             id="tspan3708">pleasures. I hope you enjoy listening to </tspan></text>
<text
           transform="matrix(1,0,0,-1,297.6409,346.6209)"
           style="font-variant:normal;font-weight:normal;font-size:12px;font-family:'Adobe Garamond Pro';-inkscape-font-specification:'Adobe Garamond Pro'-Regular;writing-mode:lr-tb;fill:#231f20;fill-opacity:1;fill-rule:nonzero;stroke:none"
           id="text3710"><tspan
             x="0 4.848 11.148 17.256001 20.256001 24.120001 28.872 33.720001 39.827999 42.911999 49.212002 54.563999 57.563999 63.2868 66.370796 70.054802 73.054802 82.522797 87.046799 90.526802 95.374802 99.358803 103.2348 106.0548 116.7348 121.9908 125.8668 129.8508 132.8508 137.69881 141.5748 144.5748 154.0188 160.1628 164.9628 171.14281"
             y="0"
             sodipodi:role="line"
             id="tspan3712">and reading Sit Ozfårs Wysr as much </tspan></text>
<text
           transform="matrix(1,0,0,-1,297.6409,332.2209)"
           style="font-variant:normal;font-weight:normal;font-size:12px;font-family:'Adobe Garamond Pro';-inkscape-font-specification:'Adobe Garamond Pro'-Regular;writing-mode:lr-tb;fill:#231f20;fill-opacity:1;fill-rule:nonzero;stroke:none"
           id="text3714"><tspan
             x="0 4.848 8.724 11.724 15.78 18.780001 23.532 29.832001 32.868 38.556 43.740002 48.492001 54.599998 57.599998 65.519997 69.503998 72.587997 76.272003 79.356003 85.655998 91.008003 94.008003 97.092003 100.776 103.776"
             y="0"
             sodipodi:role="line"
             id="tspan3716">as I enjoyed writing it. </tspan></text>
<text
           transform="matrix(1,0,0,-1,303.3049,303.6489)"
           style="font-variant:normal;font-weight:normal;font-size:12px;font-family:'Adobe Garamond Pro';-inkscape-font-specification:'Adobe Garamond Pro'-Regular;writing-mode:lr-tb;fill:#231f20;fill-opacity:1;fill-rule:nonzero;stroke:none"
           id="text3718"><tspan
             x="0 9.4680004 12.948 15.948 20.747999 26.58 32.723999 36.708 40.584 45.335999 48.335999 51.335999 55.02 61.200001 65.952003 68.952003 74.952003 79.704002 83.580002 87.264 90.264 93.947998 100.128 103.212 109.512 114.864 117.864 123.696 129.996 134.748 137.748 142.548 147.396 153.696 156.696 162.804 168.636 171.636 179.556 182.64 186.32401 192.504"
             y="0"
             sodipodi:role="line"
             id="tspan3720">Of course, the best thing one can do with </tspan></text>
<text
           transform="matrix(1,0,0,-1,297.6409,289.2489)"
           style="font-variant:normal;font-weight:normal;font-size:12px;font-family:'Adobe Garamond Pro';-inkscape-font-specification:'Adobe Garamond Pro'-Regular;writing-mode:lr-tb;fill:#231f20;fill-opacity:1;fill-rule:nonzero;stroke:none"
           id="text3722"><tspan
             x="0 3.684 9.8640003 14.616 17.615999 25.535999 31.368 35.279999 41.063999 44.939999 47.939999 51.023998 57.324001 60.324001 64.008003 70.188004 73.272003 77.148003 80.148003 86.148003 91.980003 97.811996 103.596 106.596 109.68 113.556 116.556 120.432 123.516 129.81599 135.168 138.168 141.85201 148.032 152.784 162.228 165.228 173.14799 176.23199 179.916 186.09599"
             y="0"
             sodipodi:role="line"
             id="tspan3724">the works in this book is sing them with </tspan></text>
<text
           transform="matrix(1,0,0,-1,297.6409,274.8489)"
           style="font-variant:normal;font-weight:normal;font-size:12px;font-family:'Adobe Garamond Pro';-inkscape-font-specification:'Adobe Garamond Pro'-Regular;writing-mode:lr-tb;fill:#231f20;fill-opacity:1;fill-rule:nonzero;stroke:none"
           id="text3726"><tspan
             x="0 3.48 7.4640002 10.548 15.3 21.6 27.708 31.584 34.584 37.584 41.639999 44.639999 50.82 55.667999 60.778801 65.5308 68.5308 74.7108 79.5588 85.666801 88.666801 92.3508 98.5308 103.2828 106.2828 112.3668 115.3308 120.0828 124.9308 128.80679 134.95081 138.8136 143.5656 146.5656 150.2496 156.0816 159.0816 165.18961 171.02161 174.02161 177.7056 183.8856 188.7336 192.4176"
             y="0"
             sodipodi:role="line"
             id="tspan3728">friends. I have had the pleasure to do that </tspan></text>
<text
           transform="matrix(1,0,0,-1,297.6409,260.4489)"
           style="font-variant:normal;font-weight:normal;font-size:12px;font-family:'Adobe Garamond Pro';-inkscape-font-specification:'Adobe Garamond Pro'-Regular;writing-mode:lr-tb;fill:#231f20;fill-opacity:1;fill-rule:nonzero;stroke:none"
           id="text3730"><tspan
             x="0 7.9200001 11.004 14.688 20.868 23.868 27.743999 33.576 43.02 47.771999 50.771999 56.124001 59.986801 64.7388 69.5868 73.270798 76.270798 82.354797 87.106796 92.938797 99.022797 101.9868 106.7388 109.7388 112.7388 117.5868 123.8868 129.9948 132.9948 137.0508 140.0508 147.97079 153.8028 159.94679 162.9108 169.0188 172.0188 174.9828 178.0668 183.8508 188.6028"
             y="0"
             sodipodi:role="line"
             id="tspan3732">with some great people, and I would like </tspan></text>
<text
           transform="matrix(1,0,0,-1,297.6409,246.0489)"
           style="font-variant:normal;font-weight:normal;font-size:12px;font-family:'Adobe Garamond Pro';-inkscape-font-specification:'Adobe Garamond Pro'-Regular;writing-mode:lr-tb;fill:#231f20;fill-opacity:1;fill-rule:nonzero;stroke:none"
           id="text3734"><tspan
             x="0 3.684 9.5159998 12.516 16.200001 22.379999 27.228001 33.528 39.312 42.312 51.756001 57.012001 60.012001 63.492001 67.475998 70.559998 75.311996 81.612 87.720001 91.596001 94.596001 98.075996 103.908 107.892 110.892 117.072 121.824 124.788 130.87199 133.95599 140.256 145.608 148.608 158.052 162.89999 168.68401 173.436"
             y="0"
             sodipodi:role="line"
             id="tspan3736">to thank my friends for helping make </tspan></text>
<text
           transform="matrix(1,0,0,-1,297.6409,231.6489)"
           style="font-variant:normal;font-weight:normal;font-size:12px;font-family:'Adobe Garamond Pro';-inkscape-font-specification:'Adobe Garamond Pro'-Regular;writing-mode:lr-tb;fill:#231f20;fill-opacity:1;fill-rule:nonzero;stroke:none"
           id="text3738"><tspan
             x="0 5.724 8.8079996 12.492 15.492 24.959999 29.483999 32.964001 37.812 41.796001 45.672001 48.492001 59.172001 64.428001 68.304001 72.288002 75.288002 78.251999 84.084 89.916 95.699997 98.699997 103.548 109.848 115.956 118.956 122.832 128.664 134.808 141.108 147.216 150.216 155.56799 159.4296 164.18159 169.0296 172.71359 175.71359"
             y="0"
             sodipodi:role="line"
             id="tspan3740">Sit Ozfårs Wysr look and sound great. </tspan></text>
<text
           transform="matrix(1,0,0,-1,297.6409,217.2489)"
           style="font-variant:normal;font-weight:normal;font-size:12px;font-family:'Adobe Garamond Pro';-inkscape-font-specification:'Adobe Garamond Pro'-Regular;writing-mode:lr-tb;fill:#231f20;fill-opacity:1;fill-rule:nonzero;stroke:none"
           id="text3742"><tspan
             x="0 3.9119999 10.212 13.212 18.059999 21.024 27.108 33.287998 38.136002 44.136002 48.888 52.571999 55.655998 60.456001 65.304001 68.267998 71.267998 77.099998 80.914803 87.022797 91.774803 95.758797 98.758797 102.5988 107.4468 112.7988 117.6468 120.7308 127.0308 130.03081 133.03081 139.3308 145.1628 148.8468 151.8468 157.9908 164.2908 167.25481 170.33881 176.1228 180.8748"
             y="0"
             sodipodi:role="line"
             id="tspan3744">In alphabetical order (again, not unlike </tspan></text>
<text
           transform="matrix(1,0,0,-1,297.6409,202.8489)"
           style="font-variant:normal;font-weight:normal;font-size:12px;font-family:'Adobe Garamond Pro';-inkscape-font-specification:'Adobe Garamond Pro'-Regular;writing-mode:lr-tb;fill:#231f20;fill-opacity:1;fill-rule:nonzero;stroke:none"
           id="text3746"><tspan
             x="0 10.8 15.648 19.332001 23.016001 26.016001 33.132 39.276001 44.076 49.332001 53.172001 56.172001 59.172001 62.855999 69.036003 73.884003 80.183998 85.968002 88.968002 94.150803 99.982803 106.1268 109.1268 117.4788 122.2308 128.33881 132.3228 135.4068 140.2068 143.2068 146.2068 154.55881 160.7388 164.72279 167.80679 171.6828 175.36681 178.45081 184.75079 189.50281 192.50281"
             y="0"
             sodipodi:role="line"
             id="tspan3748">Matt Bucy), thank you Cédric, Christine, </tspan></text>
<text
           transform="matrix(1,0,0,-1,297.6409,188.4489)"
           style="font-variant:normal;font-weight:normal;font-size:12px;font-family:'Adobe Garamond Pro';-inkscape-font-specification:'Adobe Garamond Pro'-Regular;writing-mode:lr-tb;fill:#231f20;fill-opacity:1;fill-rule:nonzero;stroke:none"
           id="text3750"><tspan
             x="0 6.8039999 9.7080002 13.524 18.312 21.252001 24.191999 30.924 37.007999 43.056 47.748001 51.563999 54.504002 57.444 63.408001 67.211998 71.903999 77.952003 82.643997 86.568001 89.592003 95.496002 101.58 106.272 109.212 112.152 115.872 120.564 125.352 131.592 134.532 141.588 146.37601 150.192 153.81599 156.84 161.532 167.772 170.71201 173.65199 177.37199 182.064 186.85201 193.092 199.332 204.024 207.024"
             y="0"
             sodipodi:role="line"
             id="tspan3752">Elsa, Eudes, Frédérique, Jean Bastien, Jeanne, </tspan></text>
<text
           transform="matrix(1,0,0,-1,297.6409,174.0489)"
           style="font-variant:normal;font-weight:normal;font-size:12px;font-family:'Adobe Garamond Pro';-inkscape-font-specification:'Adobe Garamond Pro'-Regular;writing-mode:lr-tb;fill:#231f20;fill-opacity:1;fill-rule:nonzero;stroke:none"
           id="text3754"><tspan
             x="0 3.684 8.3400002 12.12 18.108 22.764 25.930799 28.834801 31.726801 42.430801 47.1828 51.070801 54.0588 58.714802 61.618801 64.510803 75.214798 79.966797 83.854797 86.842796 91.498802 94.402802 97.2948 107.9988 112.7508 116.6388 119.6268 124.2828 127.1868 130.0788 140.78281 145.53481 149.1228 155.2068 158.19479 162.8508 168.8988 171.8028 174.69479 185.3976 188.3856 192.2016 197.8896 203.57761 209.6256 212.6256"
             y="0"
             sodipodi:role="line"
             id="tspan3756">Jesper, Marie, Marie, Marie, Mathieu, Mirkku, </tspan></text>
<text
           transform="matrix(1,0,0,-1,297.6409,159.6489)"
           style="font-variant:normal;font-weight:normal;font-size:12px;font-family:'Adobe Garamond Pro';-inkscape-font-specification:'Adobe Garamond Pro'-Regular;writing-mode:lr-tb;fill:#231f20;fill-opacity:1;fill-rule:nonzero;stroke:none"
           id="text3758"><tspan
             x="0 5.9400001 10.692 14.676 18.66 21.743999 28.044001 32.796001 35.796001 38.796001 46.174801 51.430801 56.278801 62.5788 65.578796 68.578796 73.426804 79.726799 85.834801 88.834801 94.414803 98.098801 102.8508 108.9348 115.1148 119.9628 126.2628 129.3468 134.0988 137.0988 140.0988 147.5748 151.45081 154.45081 158.1348 164.3148 169.0668 174.3228 177.3228 181.19881 186.0468 191.3028 194.3028 197.3868 203.6868"
             y="0"
             sodipodi:role="line"
             id="tspan3760">Perrine, Ryan, and Stéphanie. As they say in </tspan></text>
<text
           transform="matrix(1,0,0,-1,297.6409,145.2489)"
           style="font-variant:normal;font-weight:normal;font-size:12px;font-family:'Adobe Garamond Pro';-inkscape-font-specification:'Adobe Garamond Pro'-Regular;writing-mode:lr-tb;fill:#231f20;fill-opacity:1;fill-rule:nonzero;stroke:none"
           id="text3762"><tspan
             x="0 6.0240002 10.008 13.092 17.615999 23.916 29.268 34.116001 37.931999 44.040001 47.040001 51.888 57.610802 60.694801 64.378799 68.254799 71.338799 75.022797 78.022797 81.5028 86.3508 92.134804 98.062798 103.2468 109.3548 112.8348 117.6828 123.4668 129.3936 134.57761 140.68559 143.68559 149.6136 154.8696 157.8696 161.74561 164.82961 168.5136 171.5136 177.29761 180.2616 185.51759 189.3936 193.07761 197.1564 200.6364"
             y="0"
             sodipodi:role="line"
             id="tspan3764">Frizngård,“Sitsit fakbydfakbyd by sit klystrf-</tspan></text>
<text
           transform="matrix(1,0,0,-1,297.6409,130.8489)"
           style="font-variant:normal;font-weight:normal;font-size:12px;font-family:'Adobe Garamond Pro';-inkscape-font-specification:'Adobe Garamond Pro'-Regular;writing-mode:lr-tb;fill:#231f20;fill-opacity:1;fill-rule:nonzero;stroke:none"
           id="text3766"><tspan
             x="0 6.1440001 11.928 15.804 18.888 25.188 30.612 34.091999 38.939999 42.924 46.799999 49.799999 55.98 61.236 67.32 70.403999 73.884003 78.732002 82.716003 86.592003 89.592003 99.036003 103.884 109.668 115.968 118.2456 123.0936 126.0936 130.0896 133.0296 139.1136 145.35361 148.77361 154.54559 158.5656 162.18961 168.27361 174.5136 179.30161 182.92439 187.61639 190.5204 195.7764"
             y="0"
             sodipodi:role="line"
             id="tspan3768">uksingfårs hypifårs makn.” I unfortunately </tspan></text>
<text
           transform="matrix(1,0,0,-1,297.6409,116.4489)"
           style="font-variant:normal;font-weight:normal;font-size:12px;font-family:'Adobe Garamond Pro';-inkscape-font-specification:'Adobe Garamond Pro'-Regular;writing-mode:lr-tb;fill:#231f20;fill-opacity:1;fill-rule:nonzero;stroke:none"
           id="text3770"><tspan
             x="0 6.1199999 10.908 15.96 20.652 23.591999 29.832001 35.604 38.543999 41.568001 47.616001 52.307999 57.096001 60.035999 67.896004 74.015999 78.804001 82.428001 85.367996 88.991997 95.112 99.900002 103.524 106.464 115.848 120.54 125.328 131.56799 135.384 138.32401 141.26401 147.26401 153.408 157.092 160.092 163.17599 166.86 169.86 173.73599 179.56799 185.71201 192.01199 198.12 201.996"
             y="0"
             sodipodi:role="line"
             id="tspan3772">have no idea what that means, but it sounds </tspan></text>
<text
           transform="matrix(1,0,0,-1,297.6409,102.0489)"
           style="font-variant:normal;font-weight:normal;font-size:12px;font-family:'Adobe Garamond Pro';-inkscape-font-specification:'Adobe Garamond Pro'-Regular;writing-mode:lr-tb;fill:#231f20;fill-opacity:1;fill-rule:nonzero;stroke:none"
           id="text3774"><tspan
             x="0 6.3000002 9.3839998 14.184 18.936001 21.936001 26.784 33.084 39.192001 42.192001 45.276001 48.959999 51.959999 55.8228 60.574799 70.018799 73.102798 79.402802 85.510803 89.386803 92.386803 101.8308 106.5828 109.5828 115.4148 118.8948 121.8948 126.7428 129.7068 132.67081 135.67081 141.50281 144.9828 147.9828 153.1656 158.9976 165.1416"
             y="0"
             sodipodi:role="line"
             id="tspan3776">nice and it reminds me of all of you.</tspan></text>
<g
           id="g3778"
           transform="translate(595.2756,834.8032)"><path
             d="M 0,0 0,-822.047"
             style="fill:none;stroke:#918f90;stroke-width:1;stroke-linecap:butt;stroke-linejoin:miter;stroke-miterlimit:4;stroke-dasharray:2.997, 1.997;stroke-dashoffset:0;stroke-opacity:1"
             id="path3780"
             inkscape:connector-curvature="0" /></g></g></g></g></svg>